inDegrees=no
num_controls=7
num_derivatives=13
num_iterations=104
num_multipliers=7
num_parameters=0
num_slacks=7
num_states=26
objective=5.832406
objective_accelerations=0.277560
objective_balance=0.065617
objective_effort=0.375958
objective_height=5.047090
objective_ligament=0.066181
solver_duration=897.033110
status=Solve_Succeeded
success=true
DataType=double
version=3
OpenSimVersion=4.4-2022-07-23-0e9fedc
endheader
time	/jointset/ground_pelvis/pelvis_tilt/value	/jointset/ground_pelvis/pelvis_tx/value	/jointset/ground_pelvis/pelvis_ty/value	/jointset/hip_r/hip_flexion_r/value	/jointset/hip_r/hip_adduction_r/value	/jointset/hip_r/hip_rotation_r/value	/jointset/back/lumbar_extension/value	/jointset/patellofemoral_r/patellar_flexion_r/value	/jointset/knee_r/knee_flexion_r/value	/jointset/knee_r/knee_adduction_r/value	/jointset/knee_r/knee_rotation_r/value	/jointset/ankle_r/ankle_angle_r/value	/jointset/subtalar_r/subtalar_angle_r/value	/jointset/ground_pelvis/pelvis_tilt/speed	/jointset/ground_pelvis/pelvis_tx/speed	/jointset/ground_pelvis/pelvis_ty/speed	/jointset/hip_r/hip_flexion_r/speed	/jointset/hip_r/hip_adduction_r/speed	/jointset/hip_r/hip_rotation_r/speed	/jointset/back/lumbar_extension/speed	/jointset/patellofemoral_r/patellar_flexion_r/speed	/jointset/knee_r/knee_flexion_r/speed	/jointset/knee_r/knee_adduction_r/speed	/jointset/knee_r/knee_rotation_r/speed	/jointset/ankle_r/ankle_angle_r/speed	/jointset/subtalar_r/subtalar_angle_r/speed	/forceset/tau_hip_flexion_r	/forceset/tau_hip_adduction_r	/forceset/tau_hip_rotation_r	/forceset/tau_knee_flexion_r	/forceset/tau_ankle_angle_r	/forceset/tau_subtalar_angle_r	/forceset/tau_lumbar_extension	lambda_cid13_p0	lambda_cid14_p0	lambda_cid14_p1	lambda_cid14_p2	lambda_cid14_p3	lambda_cid14_p4	lambda_cid14_p5	/jointset/ground_pelvis/pelvis_tilt/accel	/jointset/ground_pelvis/pelvis_tx/accel	/jointset/ground_pelvis/pelvis_ty/accel	/jointset/hip_r/hip_flexion_r/accel	/jointset/hip_r/hip_adduction_r/accel	/jointset/hip_r/hip_rotation_r/accel	/jointset/back/lumbar_extension/accel	/jointset/patellofemoral_r/patellar_flexion_r/accel	/jointset/knee_r/knee_flexion_r/accel	/jointset/knee_r/knee_adduction_r/accel	/jointset/knee_r/knee_rotation_r/accel	/jointset/ankle_r/ankle_angle_r/accel	/jointset/subtalar_r/subtalar_angle_r/accel	gamma_cid13_p0	gamma_cid14_p0	gamma_cid14_p1	gamma_cid14_p2	gamma_cid14_p3	gamma_cid14_p4	gamma_cid14_p5
1	-0.09160273694264852	0.07842259187515122	0.8070739692207209	0.8294896521401839	-0.2329548486597448	-0.1054172933699293	-0.4360835069489241	0.9845284270962744	0.9845284270963073	-0.017718478681353	0.1745073089799975	0.4363125308668376	0.1103421799598975	-0.001127452233753263	0.008394771125583169	0.01239966117597768	-0.04170395833721378	0.002490823338399044	-0.01132765468664741	0.02134771938751474	-0.0507610337603351	-0.05076103376033333	0.0004806597930572558	-0.0002161609460460991	-0.009068648478966946	0.0008958755926042162	-0.137602470263514	0.02726579394302514	0.0137362552574152	-0.4039173299975444	-0.07185185661986752	0.004276930125660241	0.2053452758509443	-13.16321645582384	-69.00853503950063	-9.250483039679594	0.8211314530178107	15.5128793663419	-755.3674472313336	55.42528391641504	0.5698449720435572	0.1126598128794399	0.9275710773318094	-3.074695242841669	0.09836512965722667	-0.4036272926653731	0.9315774674957317	-3.74574354627114	-3.745743546271244	0.5747326736739535	-0.01011359009217928	-1.416164661025433	-0.3890990242279134	9.95067204093103e-10	-1.394280998728163e-09	3.170420067215367e-10	6.395686105196157e-09	3.782681435483699e-09	-4.776162122044375e-09	-3.574760005649402e-10
1.01	-0.09158647971927636	0.07851213061076862	0.8072441820406118	0.8289201113543839	-0.232925215985812	-0.1055504772075365	-0.435821973191004	0.9838337393417291	0.9838337393419092	-0.01768438673239255	0.1745048832383658	0.4361508830840284	0.1103312837988032	0.004342710067319044	0.009511138393721948	0.02163946059673064	-0.07216866377596171	0.003432555105855024	-0.01531083881770273	0.03104310926053962	-0.08819118568673344	-0.08819118568673399	0.006348026687723864	-0.0002611348324818646	-0.02327768867680848	-0.003086605730111837	-0.1381411570957952	0.02735514958510079	0.01370556170457955	-0.4028061047910863	-0.07334263823543989	0.004490253478383394	0.205779628026698	-13.20935234766725	-69.48212553020964	-9.202762665056362	0.7701225604559057	15.86447179534609	-755.4548704045774	55.46635210154248	0.5301742660554575	0.1108499911204168	0.9216664860597188	-3.027027671634002	0.09160528247147119	-0.3959216488432894	1.001131306354606	-3.743851635583434	-3.743851635583885	0.5942833457955823	-0.0005093988362432668	-1.425791003505813	-0.4045458772165575	1.690722839546863e-09	-4.325140098476826e-10	1.851776417412267e-09	9.828314595097689e-09	2.257580040846835e-09	-7.75778715736067e-09	1.763933002657511e-09
1.02	-0.09151660639151296	0.07861277798053425	0.807506689277033	0.828046989618767	-0.2328862603777908	-0.1057235444215301	-0.4354609632225003	0.9827643099439308	0.9827643099443242	-0.01759131218485689	0.1745022437357716	0.4358466414383199	0.1102802181862941	0.009595768645063776	0.01061649795523303	0.03085854448218401	-0.1024201483044132	0.00435541016056332	-0.01930432996947922	0.04124296149954744	-0.1257093624035017	-0.125709362403504	0.01227717951970032	-0.0002589131555983071	-0.03758742104834707	-0.007138014689753886	-0.1386798439279076	0.02744450522723839	0.01367486815233428	-0.4016948795845741	-0.07483341985099354	0.00470357683120627	0.2062139802025922	-13.28048063387227	-69.96542728790931	-9.150911655600638	0.7117947977649121	16.21906324557894	-755.7123517657727	55.53705005314485	0.5264242273781962	0.1104582715537301	0.9234279702718929	-3.032051060782317	0.09458978710768254	-0.405688696809651	1.03246994069229	-3.763348504345141	-3.763348504345132	0.5870898611359143	-0.0006744774282434092	-1.436303095765098	-0.4028845516132186	2.497581046087645e-09	-2.503212910826235e-10	-3.345708872617471e-09	1.806793803386442e-08	3.179461739863097e-09	-9.215904331886797e-09	-5.355368224517819e-09
1.03	-0.09139531038177068	0.07872444064028949	0.8078612365218626	0.8268724952808274	-0.2328381377184647	-0.1059366054936087	-0.4349954832471851	0.9813193485421586	0.9813193485421268	-0.01743873429773212	0.1744997789062624	0.4353988566075643	0.1101883861187494	0.01462257910340549	0.01171583559002654	0.04004245763962631	-0.1324327945770646	0.005269322418899418	-0.0233100214826098	0.05193489850644712	-0.163288464158053	-0.1632884641580555	0.01823909656995857	-0.000234840605278154	-0.05198076421497788	-0.0112306242373455	-0.1388799099895882	0.02752800857770375	0.01365048951036347	-0.4006034543397793	-0.07579248111501065	0.00477529253161983	0.2063558892057465	-13.37665476516727	-70.26421551864941	-9.145037250886761	0.6799675415179383	16.45932542698609	-755.5974187130016	55.49436917918824	0.4846819984613735	0.1096425789890538	0.9146038214418279	-2.978982273678005	0.08982594022650424	-0.3983263462340901	1.09983532221615	-3.756023608019873	-3.756023608020084	0.6008466198803276	0.003834450997915668	-1.442532855780467	-0.4127811304167205	3.305573972741561e-09	-7.608341180854263e-11	-8.611890282042355e-09	2.635661244149716e-08	4.126312654120731e-09	-1.065847550783342e-08	-1.256896241322787e-08
1.04	-0.0912249717587701	0.07884709089030108	0.808307369064859	0.8253992523074832	-0.2327808691375653	-0.1061897868743442	-0.4344206279534965	0.9794984296034277	0.979498429603012	-0.01722651644159261	0.174497532068257	0.4348068017594021	0.1100555615609088	0.01940429129772643	0.01281401600649837	0.04917560411565045	-0.1621698753765839	0.006184594478458738	-0.02732839170253613	0.06311802517447439	-0.2009008697929951	-0.2009008697929981	0.02420517333661864	-0.0002153148655284323	-0.06644142452835033	-0.01533651274832688	-0.1390799760515135	0.02761151192810208	0.01362611086913101	-0.3995120290949939	-0.0767515423790379	0.00484700823189811	0.2064977982086872	-13.49791718554829	-70.57282121361607	-9.135021465830583	0.6407861950104342	16.70327888559434	-755.6537697948063	55.48156805157353	0.477404574574233	0.1102268278891816	0.9132746339882635	-2.976937966155812	0.09486174735231254	-0.4082244381688593	1.130707872917844	-3.770009280423348	-3.770009280423389	0.5879218044162687	-0.001583839542241203	-1.449766525113741	-0.4055403442913054	4.005972106705041e-09	3.965588046324951e-11	-1.196562417405478e-08	3.261662748232184e-08	4.817943308150991e-09	-1.244341320653388e-08	-1.757929398437821e-08
1.05	-0.09100789347957527	0.07898072140411611	0.8088445466434477	0.8236299188325479	-0.2327144559682956	-0.1064832176920327	-0.4337316810958013	0.9773013095610299	0.9773013095609504	-0.0169546163979275	0.1744954645283692	0.4340698432407485	0.1098816152488815	0.0239831363269107	0.01391228131437134	0.05824795294782441	-0.1916581797846136	0.007096620305391357	-0.03135939067058276	0.07473621469892672	-0.2385195954967751	-0.2385195954967768	0.03017645104521683	-0.0001984053747539956	-0.08095778200530401	-0.0194549749224511	-0.1390692229946583	0.02759594887567212	0.0136023224573541	-0.3982036729330664	-0.07755018939304553	0.004896945631524362	0.2064249816620567	-13.64427572205611	-70.80818737802325	-9.117802557373148	0.5960727741113016	16.92489936017352	-755.3207585602046	55.45286968707283	0.4438911202600825	0.1096566725111214	0.9024183437606424	-2.92898014339222	0.08916588477788787	-0.4007751852851231	1.187104742559298	-3.757273684705207	-3.75727368470519	0.6019717752251108	0.003302944893968812	-1.453695761782623	-0.4153306442702419	4.703007903396944e-09	1.535670918912205e-10	-1.525959408114808e-08	3.881324691793378e-08	5.501598329049148e-09	-1.423904985907039e-08	-2.252077359872982e-08
1.06	-0.09074587341945464	0.07912534062906387	0.8094720883775439	0.8215668616204371	-0.2326389639638836	-0.1068170060112462	-0.4329246062927939	0.9747281083677297	0.9747281083680027	-0.01662295537301076	0.1744935610037062	0.4331874960667694	0.1096664180170502	0.02839264748288585	0.01501175823304597	0.06724843521727836	-0.2209146228032801	0.008000361508949918	-0.03539989200515808	0.08674361423742748	-0.2761170999745487	-0.276117099974549	0.03615736959958426	-0.0001825118237107445	-0.0955191555941191	-0.02358669670847554	-0.1390584699380635	0.02758038582307002	0.01357853404627436	-0.39689531677115	-0.07834883640709579	0.004946883030824973	0.2063521651152133	-13.81573585194812	-71.05347021141431	-9.09653053559401	0.5441003278387628	17.15075710960817	-755.1599752416093	55.45404657366209	0.4435377999326223	0.1104691500492862	0.8989013214442639	-2.930565688283051	0.0932048226774795	-0.4101249114746582	1.208549875727599	-3.765765035222111	-3.765765035222119	0.5898499735701054	-0.001787027488388017	-1.458769747486362	-0.4081922666714877	5.34489488614869e-09	2.25129450731521e-10	-1.990479342026182e-08	4.508120288851717e-08	6.314852026407888e-09	-1.564268212929364e-08	-2.873949882307086e-08
1.07	-0.09044061740318961	0.07928096540847659	0.8101892244432026	0.8192124855249138	-0.2325544871927394	-0.1071912442278732	-0.4319955493474376	0.971779143903481	0.9717791439035868	-0.01623144339702264	0.1744918089498991	0.432159344181729	0.109409845332079	0.03262698269790815	0.01611382303815445	0.07616144739125835	-0.2499108628954602	0.008892610737662411	-0.0394475557833448	0.0991313036673238	-0.3136614223151311	-0.3136614223151311	0.04214689106767189	-0.0001694591501047579	-0.1101154102240419	-0.02772912158834152	-0.1387840900940949	0.02753600308175366	0.01355676555502228	-0.3954581448093032	-0.07884334185084341	0.00490805792796222	0.2060308729717556	-14.01226884951276	-71.18391180847381	-9.101948483469579	0.5058044151420886	17.32492300046539	-754.6115472798429	55.37264226287076	0.4086464836939563	0.1101703919704929	0.8848981622590222	-2.876692492144797	0.086885156401215	-0.4020506720159718	1.263407801816174	-3.746611455457208	-3.746611455457373	0.6037808982269128	0.002625633768757462	-1.460681482370149	-0.4174574657428523	5.983848421350427e-09	2.944392110299238e-10	-2.462186666533411e-08	5.135295335564159e-08	7.134999270386872e-09	-1.702546310258533e-08	-3.502616264368796e-08
1.08	-0.09009396501449074	0.07944762988518531	0.8109949700299783	0.8165696391639646	-0.232461157892632	-0.1076059517944978	-0.4309407096427396	0.9684551670914368	0.9684551670913792	-0.01577998067343757	0.1744901422666239	0.4309851041180684	0.1091118104248861	0.03667192196921842	0.01721969769224166	0.08497033944076014	-0.2786086758860179	0.009770867303751036	-0.04349376200256345	0.1119001661050741	-0.3511195695349473	-0.3511195695349471	0.04814751912773566	-0.0001654377171498155	-0.124736791318964	-0.03187914115216352	-0.138509710250202	0.02749162034028817	0.01353499706420829	-0.3940209728474454	-0.07933784729463157	0.004869232824820602	0.2057095808282483	-14.23383624580012	-71.32432510285551	-9.103334963463709	0.4602666557279751	17.50377915403402	-754.2357844803217	55.32134107606382	0.4056586111904463	0.1112311198447938	0.8780772965486318	-2.87088026795846	0.09040629015268623	-0.4098333996811062	1.284784477298497	-3.748530011068934	-3.748530011068915	0.5920712919653209	-0.003593275618508859	-1.463795040486606	-0.4097112034628334	6.517629148345415e-09	2.777915857141652e-10	-2.797544165895942e-08	5.620775933044103e-08	7.877252456911791e-09	-1.847128876942347e-08	-3.973218680410036e-08
